<svg xmlns="http://www.w3.org/2000/svg" width="138" height="182" viewBox="0 0 138 182">
  <g id="그룹_312" data-name="그룹 312" transform="translate(-1514 -2455)">
    <text id="관할구역" transform="translate(1583 2629)" fill="#0068b7" font-size="24" font-family="NotoSansCJKkr-Medium, Noto Sans CJK KR" font-weight="500"><tspan x="-44.16" y="0">관할구역</tspan></text>
    <g id="그룹_277" data-name="그룹 277" transform="translate(0 -29)">
      <circle id="타원_48" data-name="타원 48" cx="69" cy="69" r="69" transform="translate(1514 2484)" fill="#f1f8fe"/>
      <g id="그룹_255" data-name="그룹 255" transform="translate(1461.352 2388.529)">
        <path id="패스_324" data-name="패스 324" d="M95.885,126.84l-11.167,72.64h80.123L154.02,126.84Z" fill="#fff"/>
        <path id="패스_253" data-name="패스 253" d="M90,163.239a1.521,1.521,0,0,1-1.518-1.526h0a1.422,1.422,0,0,1,.018-.225l5.409-35.247a1.521,1.521,0,0,1,1.5-1.291h38.775a1.522,1.522,0,0,1,1.463,1.1l6.869,23.956a1.523,1.523,0,0,1-1.051,1.879l-.083.021-51.053,11.3A1.512,1.512,0,0,1,90,163.239Zm6.714-35.25-4.873,31.76,47.3-10.461-6.107-21.3H96.714Z" fill="#00459d"/>
        <path id="패스_255" data-name="패스 255" d="M158.275,157.776a1.527,1.527,0,0,1-.488-.08l-17.223-5.828a1.516,1.516,0,0,1-.975-1.022l-6.873-23.953a1.522,1.522,0,0,1,1.463-1.941h19.53a1.523,1.523,0,0,1,1.5,1.291l4.57,29.784a1.522,1.522,0,0,1-1.273,1.734h0a1.438,1.438,0,0,1-.227.018Zm-15.981-8.535,14.1,4.77L152.4,127.988H136.2Z" fill="#00459d"/>
        <path id="패스_256" data-name="패스 256" d="M118.77,155.535l15.6,25.106,26.883-4.963-2.981-19.425-17.224-5.831L90,161.717,75.17,177.012h56.766" fill="#3f80be"/>
        <path id="패스_257" data-name="패스 257" d="M134.373,182.163a1.521,1.521,0,0,1-1.292-.718l-1.81-2.911h-56.1a1.52,1.52,0,0,1-1.092-2.58l14.83-15.291a1.518,1.518,0,0,1,.764-.427l51.052-11.291a1.52,1.52,0,0,1,.816.045l17.223,5.832a1.521,1.521,0,0,1,1.016,1.211l2.98,19.424a1.524,1.524,0,0,1-1.228,1.727l-26.882,4.957A1.508,1.508,0,0,1,134.373,182.163ZM121.093,156.4l14.024,22.558,24.411-4.507-2.619-17.056-15.946-5.4Zm-42.329,19.1h50.615l-11.436-18.4L90.773,163.1Z" fill="#00459d"/>
        <path id="패스_259" data-name="패스 259" d="M146.2,201.193H84.177a1.52,1.52,0,0,1-1.518-1.524h0a1.438,1.438,0,0,1,.018-.227l3.477-22.657a1.519,1.519,0,0,1,1.5-1.291l43.812-.165a1.513,1.513,0,0,1,1.284.7l14.727,22.818a1.522,1.522,0,0,1-1.278,2.347Zm-60.253-3.046h57.46l-12.77-19.776-41.678.157Z" fill="#00459d"/>
        <path id="패스_261" data-name="패스 261" d="M164.937,201.193H146.209a1.52,1.52,0,0,1-1.292-.718l-11.828-19.027a1.52,1.52,0,0,1,.476-2.1l.006,0h.007a1.514,1.514,0,0,1,.527-.2l26.883-4.963a1.521,1.521,0,0,1,1.772,1.219l.008.047,3.681,23.99a1.522,1.522,0,0,1-1.275,1.734,1.7,1.7,0,0,1-.225.018Zm-17.89-3.043h16.117l-3.175-20.688-23.147,4.273Z" fill="#00459d"/>
        <path id="패스_262" data-name="패스 262" d="M115.745,121.242a14.137,14.137,0,0,0-14.136,14.138h0c0,7.809,14.139,28.277,14.139,28.277s14.139-20.468,14.139-28.277a14.139,14.139,0,0,0-14.14-14.138h0Z" fill="#fff"/>
        <path id="패스_263" data-name="패스 263" d="M115.745,165.179a1.52,1.52,0,0,1-1.252-.657c-.036-.052-3.61-5.237-7.133-11.311-4.827-8.321-7.275-14.32-7.275-17.83a15.66,15.66,0,0,1,31.316-.5c0,.08,0,.16,0,.24v.26c0,3.51-2.448,9.509-7.275,17.83-3.524,6.075-7.1,11.26-7.133,11.311A1.525,1.525,0,0,1,115.745,165.179Zm0-42.416a12.63,12.63,0,0,0-12.617,12.617c0,5.443,8.2,18.911,12.617,25.561,4.419-6.65,12.619-20.119,12.619-25.561a12.632,12.632,0,0,0-12.617-12.616Z" fill="#00459d"/>
        <path id="패스_264" data-name="패스 264" d="M115.744,141.573a6.192,6.192,0,1,1,6.192-6.192,6.192,6.192,0,0,1-6.192,6.192Z" fill="#fbbb41"/>
        <path id="패스_265" data-name="패스 265" d="M115.745,143.093a7.714,7.714,0,1,1,7.714-7.714,7.714,7.714,0,0,1-7.714,7.714Zm0-12.385a4.671,4.671,0,1,0,4.671,4.671,4.671,4.671,0,0,0-4.671-4.671Z" fill="#00459d"/>
      </g>
    </g>
  </g>
</svg>
