<svg xmlns="http://www.w3.org/2000/svg" viewBox="0 0 560.67 108.16"><defs><style>.cls-1{fill:#fff;}.cls-2{fill:none;}</style></defs><title>자산 1</title><g id="레이어_2" data-name="레이어 2"><g id="Layer_4_copy_2" data-name="Layer 4 copy 2"><path class="cls-1" d="M90.49,23.9s-4.64.92-5.47,1.19a8.58,8.58,0,0,1-2.7,0l-.14-3.19a50,50,0,0,0-2.84,4.27s-3.68-1.52-4.51-1.84c0,0,3.67,4.54,3.53,5.08a61.84,61.84,0,0,1-6.81,1.66s7,.22,7.87,1.18.83,1.62-.82,3.56c0,0,3.45-1.62,4-3.56,0,0,3.87,1.08,4.15,3.77,0,0-.28-5.06-.83-5.81,0,0,5.33,0,7.76,1,0,0-4.71-2.92-7.34-3.67C86.34,27.52,87,25.25,90.49,23.9Z"/><polygon class="cls-2" points="52.1 36.2 47.47 36.2 47.47 59.7 17.62 59.7 17.62 64.69 47.47 64.69 47.47 87.72 52.1 87.72 52.1 64.69 82.22 64.69 82.22 59.7 52.1 59.7 52.1 36.2"/><path class="cls-2" d="M65.33,50S80.12,34.19,83.57,33.65l9.12,17.67-5.52-20,8.15.54s-1.11-2.15-8-4.73a17.69,17.69,0,0,1,5.81-4s-1-1-9.81,1.4L83,17.71a21.76,21.76,0,0,0-4.29,7.76s-5.39-3.66-7.46-4.2c0,0,5.67,8.51,5,7.75L52.48,34.19l25.29-1.72Z"/><path class="cls-1" d="M84,70.32c6.43-19.61,23.55-29.54,23.55-29.54a63.06,63.06,0,0,1,12.59-6C112.25,15.47,89,1.46,61.55,1.46,27.56,1.46,0,22.93,0,49.42s27.56,48,61.55,48a76.65,76.65,0,0,0,24.37-3.91A29.63,29.63,0,0,1,84,70.32ZM76.25,29c.69.76-5-7.75-5-7.75,2.07.54,7.46,4.2,7.46,4.2A21.76,21.76,0,0,1,83,17.71l.28,6.79c8.84-2.37,9.81-1.4,9.81-1.4a17.69,17.69,0,0,0-5.81,4c6.91,2.58,8,4.73,8,4.73l-8.15-.54,5.52,20L83.57,33.65C80.12,34.19,65.33,50,65.33,50L77.77,32.47,52.48,34.19Zm6,35.67H52.1v23H47.47v-23H17.62v-5H47.47V36.2H52.1V59.7H82.22Z"/><path class="cls-1" d="M90.86,65.23C87.53,73,85.61,83,90.19,91.88c19.57-8,32.91-24,32.91-42.46a38.22,38.22,0,0,0-2.21-12.74,52.3,52.3,0,0,0-12.27,5.92C101,47.45,94.83,55.94,90.86,65.23Z"/><path class="cls-1" d="M151.3,44.21S148.48,18.66,129.6.8A94.14,94.14,0,0,1,144.31,45c2.49,38.13-28.63,56.42-28.63,56.42S156.18,79.2,151.3,44.21Z"/><path class="cls-1" d="M162.77,43.2S160.43,17.19,141,0a96.59,96.59,0,0,1,16.23,43.63c3.61,33.58-26.38,57.8-26.38,57.8S166.14,77.21,162.77,43.2Z"/><path class="cls-1" d="M151.94,92.77c-9,12.52-15.13,15.39-15.13,15.39A38,38,0,0,0,153.6,94.49s6.32-10.7,6.86-19.62C160.46,74.87,158.84,83.2,151.94,92.77Z"/><path class="cls-1" d="M160.67,4.54s7.74,11.46,10,37.12c2.84,32.52-12.54,50.7-12.54,50.7s19.59-19.69,19-45.79C177.13,46.57,176,17.59,160.67,4.54Z"/><path class="cls-1" d="M129.59,35.79c7.48,1.3,6.69,8.64,6.69,11.3s0,13.49-18.46,37.16c0,0,17-18.36,20.4-33.92,1.21-5.57,1.05-10.87-2.63-14.75,0,0-3.77-4.58-15.41-.77.26.61.49,1.24.71,1.87A19.07,19.07,0,0,1,129.59,35.79Z"/><path class="cls-1" d="M93.64,96.94a25.51,25.51,0,0,1-3.45-5.06c-1.39.57-2.82,1.11-4.27,1.6,2.57,4.8,6.32,8.34,10.26,9.71,3,1.07,10.2,2.22,19.5-1.81C115.68,101.38,101.88,106.39,93.64,96.94Z"/><path class="cls-1" d="M394,32.15c0-7.36-7.52-13.33-16.8-13.33s-16.79,6-16.79,13.33,7.52,13.33,16.79,13.33S394,39.51,394,32.15Zm-25,0c0-4.92,3.68-8.9,8.22-8.9s8.21,4,8.21,8.9-3.68,8.9-8.21,8.9S369,37.06,369,32.15Z"/><rect class="cls-1" x="397.27" y="19.04" width="8.78" height="30.58"/><path class="cls-1" d="M376.13,49.58h-8.74V62.1c0,2.25.15,4.08,7.31,4.08h30.18V61.44H376.13Z"/><polygon class="cls-1" points="449.44 19.04 449.44 29.45 442.5 29.45 442.5 33.9 449.44 33.9 449.44 49.62 458.09 49.62 458.09 19.04 449.44 19.04"/><path class="cls-1" d="M429.26,49.58h-8.71V62.1c0,2.25.14,4.08,7.31,4.08H458V61.44H429.26Z"/><polygon class="cls-1" points="421.75 45.41 429.59 29.38 437.28 45.41 446 45.41 435.24 24.99 445.89 24.99 445.89 20.58 433.29 20.58 433.29 16.6 424.83 16.6 424.83 20.58 412.8 20.58 412.8 24.99 423.44 24.99 413.7 45.41 421.75 45.41"/><polygon class="cls-1" points="241.68 19.04 241.68 29.45 234.74 29.45 234.74 33.9 241.68 33.9 241.68 49.62 250.33 49.62 250.33 19.04 241.68 19.04"/><path class="cls-1" d="M221.5,49.58h-8.71V62.1c0,2.25.14,4.08,7.31,4.08h30.18V61.44H221.5Z"/><polygon class="cls-1" points="213.99 45.41 221.83 29.38 229.52 45.41 238.24 45.41 227.48 24.99 238.13 24.99 238.13 20.58 225.53 20.58 225.53 16.6 217.07 16.6 217.07 20.58 205.04 20.58 205.04 24.99 215.68 24.99 205.94 45.41 213.99 45.41"/><polygon class="cls-1" points="508.51 61.2 492.85 61.2 492.85 35.69 484.07 35.69 484.07 61.2 480.74 61.2 480.74 35.69 471.97 35.69 471.97 61.2 464.69 61.2 464.69 66.18 508.51 66.18 508.51 61.2"/><polygon class="cls-1" points="497.34 24.8 497.34 56.22 506.12 56.22 506.12 20.34 467.2 20.34 467.22 24.8 497.34 24.8"/><polygon class="cls-1" points="353.53 61.2 337.87 61.2 337.87 35.69 329.09 35.69 329.09 61.2 325.76 61.2 325.76 35.69 316.99 35.69 316.99 61.2 309.71 61.2 309.71 66.18 353.53 66.18 353.53 61.2"/><polygon class="cls-1" points="342.36 24.8 342.36 56.22 351.14 56.22 351.14 20.34 312.23 20.34 312.24 24.8 342.36 24.8"/><polygon class="cls-1" points="514.93 48.16 533.34 48.16 533.34 66.18 542.05 66.18 542.05 48.16 560.67 48.16 560.67 43.71 514.93 43.71 514.93 48.16"/><polygon class="cls-1" points="548.69 23.97 548.69 38.91 557.34 38.91 557.34 20.19 518.23 20.19 518.34 23.97 548.69 23.97"/><polygon class="cls-1" points="260.91 38.68 270.73 38.68 280.51 27.59 290.69 38.68 299.84 38.61 286.97 23.95 298.12 23.95 298.12 20.2 262.4 20.2 262.4 23.95 274.05 23.95 260.91 38.68"/><polygon class="cls-1" points="257.18 48.1 275.65 48.1 275.65 66.18 284.39 66.18 284.39 48.1 303.07 48.1 303.07 43.63 257.18 43.63 257.18 48.1"/><path class="cls-1" d="M511.81,97.35V94.74H499.88V87.31h10.84V84.77H499.88V78.12h11.73V75.43H497.28V97.35Z"/><path class="cls-1" d="M431.49,97.36V79.62l10.07,17.74h3V75.44H442V93.2l-9.93-17.76H429V97.36Z"/><path class="cls-1" d="M474.9,97.34V75.41h2.69v9.06h10.22V75.41h2.69V97.34h-2.69V87.08H477.59V97.34Z"/><path class="cls-1" d="M547.61,97.41V79.51l10.07,17.9h3V75.3h-2.53V93.21L548.21,75.3h-3.14V97.41Z"/><path class="cls-1" d="M422,97.41v-22h-2.69v22Z"/><path class="cls-1" d="M517.19,86.34c0-6.08,4.62-11,10.31-11s10.3,4.94,10.3,11-4.61,11-10.3,11S517.19,92.42,517.19,86.34Zm10.31,8.57a8.59,8.59,0,1,0-8-8.57A8.31,8.31,0,0,0,527.5,94.91Z"/><path class="cls-1" d="M466.72,92.41a7.55,7.55,0,0,1-11.22,0,9,9,0,0,1,0-12,7.56,7.56,0,0,1,11.22,0l1.61-1.72a9.71,9.71,0,0,0-14.43,0,11.54,11.54,0,0,0,0,15.49,9.71,9.71,0,0,0,14.43,0Z"/><path class="cls-1" d="M229.84,97.32v-22h-2.69v22Z"/><path class="cls-1" d="M303.58,97.4V94.78H291.65V87.33h10.84V84.79H291.65V78.13h11.73v-2.7H289.05v22Z"/><path class="cls-1" d="M346.92,97.35V94.73H335V87.26h10.85V84.71H335V78h11.73v-2.7H332.39v22Z"/><path class="cls-1" d="M392.24,97.41V94.79h0V87.34h10.85V84.8H392.22V78.13H404v-2.7H389.63v22Z"/><path class="cls-1" d="M280.16,92.42a7.55,7.55,0,0,1-11.22,0,9,9,0,0,1,0-12,7.55,7.55,0,0,1,11.22,0l1.6-1.73a9.7,9.7,0,0,0-14.42,0,11.55,11.55,0,0,0,0,15.5,9.69,9.69,0,0,0,14.42,0Z"/><path class="cls-1" d="M236.72,86.34c0-6.08,4.61-11,10.3-11s10.3,4.94,10.3,11-4.61,11-10.3,11S236.72,92.42,236.72,86.34ZM247,94.91a8.59,8.59,0,1,0-8-8.57A8.3,8.3,0,0,0,247,94.91Z"/><path class="cls-1" d="M363.21,86.34c0-6.08,4.61-11,10.3-11s10.3,4.94,10.3,11-4.61,11-10.3,11S363.21,92.42,363.21,86.34Zm10.3,8.57a8.59,8.59,0,1,0-8-8.57A8.3,8.3,0,0,0,373.51,94.91Z"/><path class="cls-1" d="M319.5,85.14H316a3.7,3.7,0,0,1,0-7.37v-.08h7.29V75.32H316c-3.06,0-5.53,2.74-5.53,6.13S313,87.58,316,87.58h3.49a3.71,3.71,0,0,1,0,7.38v0h-8.13v2.36h8.13v.05c3.05,0,5.53-2.74,5.53-6.13S322.55,85.14,319.5,85.14Z"/><path class="cls-1" d="M213,77.87a6.05,6.05,0,0,1,2.68,1.41A7.9,7.9,0,0,1,217.89,83a11.31,11.31,0,0,1,.41,3.18,9.55,9.55,0,0,1-2.6,7.11c-1.47,1.47-3.26,1.71-5.37,1.71h-2.5V77.58h1.07A16.19,16.19,0,0,1,213,77.87Zm-7.84,19.47h4.32c3.52,0,6.29-1,8.3-3s3-4.7,3-8.22a12.54,12.54,0,0,0-.81-4.52A10,10,0,0,0,217.59,78a7.79,7.79,0,0,0-2.89-1.89,14.14,14.14,0,0,0-4.92-.73h-4.63Z"/></g></g></svg>