<svg xmlns="http://www.w3.org/2000/svg" width="138" height="214" viewBox="0 0 138 214">
  <g id="그룹_319" data-name="그룹 319" transform="translate(-1582 -2455)">
    <text id="문한림_주교_강론_모음" data-name="문한림 주교
강론 모음" transform="translate(1651 2631)" fill="#0068b7" font-size="24" font-family="NotoSansCJKkr-Bold, Noto Sans CJK KR" font-weight="700"><tspan x="-57.924" y="0">문한림 주교</tspan><tspan x="-46.884" y="30">강론 모음</tspan></text>
    <g id="그룹_278" data-name="그룹 278" transform="translate(1327 -255)">
      <circle id="타원_49" data-name="타원 49" cx="69" cy="69" r="69" transform="translate(255 2710)" fill="#f1f8fe"/>
      <path id="패스_291" data-name="패스 291" d="M130.327,186.748H90.785v-9.035a10.311,10.311,0,0,1,5.98-9.41l13.792-6.268,13.792,6.268a10.312,10.312,0,0,1,5.979,9.41Z" transform="translate(213.064 2600.811)" fill="#3f80be"/>
      <path id="패스_292" data-name="패스 292" d="M130.147,188.218H90.6a1.65,1.65,0,0,1-1.65-1.65v-9.035A11.974,11.974,0,0,1,95.9,166.62l13.792-6.268a1.651,1.651,0,0,1,1.366,0l13.792,6.268a11.975,11.975,0,0,1,6.947,10.913v9.035a1.651,1.651,0,0,1-1.651,1.65Zm-37.892-3.3H128.5v-7.384a8.668,8.668,0,0,0-5.011-7.908l-13.109-5.958-13.108,5.958a8.666,8.666,0,0,0-5.013,7.908v7.384Z" transform="translate(213.244 2600.991)" fill="#00459d"/>
      <path id="패스_293" data-name="패스 293" d="M112.241,168.015a4.393,4.393,0,0,1-4.394-4.394v-2.2h8.787v2.2A4.392,4.392,0,0,1,112.241,168.015Z" transform="translate(211.38 2600.871)" fill="#fff"/>
      <path id="패스_294" data-name="패스 294" d="M112.06,169.486a6.051,6.051,0,0,1-6.044-6.044v-2.2a1.651,1.651,0,0,1,1.65-1.65h8.788a1.651,1.651,0,0,1,1.65,1.65v2.2A6.052,6.052,0,0,1,112.06,169.486Zm-2.744-6.591v.547a2.743,2.743,0,0,0,5.486,0v-.547Z" transform="translate(211.56 2601.051)" fill="#00459d"/>
      <path id="패스_295" data-name="패스 295" d="M125.257,143.06a6.225,6.225,0,0,1-.079-1.73,3.445,3.445,0,0,0-2.6-3.4,43.836,43.836,0,0,0-23.139.748,2.27,2.27,0,0,0-1.577,2.242,8.336,8.336,0,0,1-.065,2.142,2.747,2.747,0,0,0-2.744,2.846,2.815,2.815,0,0,0,1.3,2.164,2.447,2.447,0,0,0,2.315.328,15.271,15.271,0,0,0,10.277,11.476,7.671,7.671,0,0,0,4.707-.05l.488-.158a15.273,15.273,0,0,0,10.207-11.281,2.511,2.511,0,0,0,2.3-.26,2.79,2.79,0,0,0,1.335-1.97,2.748,2.748,0,0,0-2.725-3.1Z" transform="translate(212.643 2603.309)" fill="#fff"/>
      <path id="패스_296" data-name="패스 296" d="M111,161.693a8.933,8.933,0,0,1-2.744-.428A16.952,16.952,0,0,1,97.236,150a4.256,4.256,0,0,1-1.987-.744,4.451,4.451,0,0,1-2.026-3.474,4.406,4.406,0,0,1,2.824-4.269c0-.2-.008-.444-.015-.732a3.926,3.926,0,0,1,2.743-3.867,45.7,45.7,0,0,1,24.019-.773,5.069,5.069,0,0,1,3.855,5.029c0,.126,0,.241,0,.345a4.4,4.4,0,0,1,2.795,4.658,4.453,4.453,0,0,1-2.1,3.169,4.278,4.278,0,0,1-1.944.666,16.987,16.987,0,0,1-10.925,11.044l-.488.158a9.635,9.635,0,0,1-2.977.48ZM98.487,146.567a1.651,1.651,0,0,1,1.617,1.319,13.641,13.641,0,0,0,9.166,10.237,6.058,6.058,0,0,0,3.693-.05l.488-.158a13.669,13.669,0,0,0,9.1-10.062,1.651,1.651,0,0,1,2.161-1.205.878.878,0,0,0,.877-.1,1.172,1.172,0,0,0,.57-.771,1.1,1.1,0,0,0-1.086-1.243,1.674,1.674,0,0,1-1.186-.5c-.551-.558-.569-1.143-.543-2.907A1.805,1.805,0,0,0,122,139.349a42.355,42.355,0,0,0-22.259.724.627.627,0,0,0-.413.619c.059,2.113.05,2.748-.518,3.333a1.687,1.687,0,0,1-1.2.506,1.1,1.1,0,0,0-1.094,1.137,1.194,1.194,0,0,0,.574.855.823.823,0,0,0,.866.131,1.642,1.642,0,0,1,.525-.087Zm28.176-4.048h0Z" transform="translate(212.823 2603.489)" fill="#00459d"/>
      <path id="패스_297" data-name="패스 297" d="M125.564,136.7c0-17.435-27.461-16.336-27.4-2.238.007,1.583.041,3.3.024,4.488a10.276,10.276,0,0,0,7.658-2.752c3.2,6.207,12.105,8.752,19.718,2.8Z" transform="translate(212.335 2604.59)" fill="#fff"/>
      <path id="패스_298" data-name="패스 298" d="M116.229,143.844a14.38,14.38,0,0,1-3.1-.336,13.259,13.259,0,0,1-7.88-5.038,12.462,12.462,0,0,1-7.3,1.945,1.65,1.65,0,0,1-1.593-1.672c.01-.739,0-1.7-.01-2.711-.005-.579-.012-1.172-.014-1.748a11.321,11.321,0,0,1,6.012-10.083,18.56,18.56,0,0,1,17.8-.032,13.636,13.636,0,0,1,6.891,12.345v2.3a1.648,1.648,0,0,1-.635,1.3A16.533,16.533,0,0,1,116.229,143.844Zm-10.563-9.481a1.718,1.718,0,0,1,.253.019,1.653,1.653,0,0,1,1.214.876,9.822,9.822,0,0,0,6.707,5.026,12.427,12.427,0,0,0,9.893-2.295v-1.475a10.29,10.29,0,0,0-5.237-9.484,15.33,15.33,0,0,0-14.493.024,8.105,8.105,0,0,0-4.369,7.216c0,.569.009,1.155.014,1.729,0,.36.007.712.009,1.052a8.128,8.128,0,0,0,4.839-2.2A1.652,1.652,0,0,1,105.666,134.363Zm19.718,4.456h0Z" transform="translate(212.516 2604.771)" fill="#00459d"/>
      <path id="패스_299" data-name="패스 299" d="M83.426,189.482h52.808v41.257H83.426Z" transform="translate(213.79 2598.101)" fill="#fff"/>
      <path id="패스_300" data-name="패스 300" d="M136.053,232.208H83.245a1.651,1.651,0,0,1-1.65-1.65V189.3a1.651,1.651,0,0,1,1.65-1.65h52.808a1.65,1.65,0,0,1,1.65,1.65v41.257A1.65,1.65,0,0,1,136.053,232.208Zm-51.157-3.3H134.4V190.952H84.9Z" transform="translate(213.971 2598.282)" fill="#00459d"/>
      <path id="패스_302" data-name="패스 302" d="M112.541,219.91a1.65,1.65,0,0,1-1.65-1.65v-19.8a1.65,1.65,0,0,1,3.3,0v19.8A1.651,1.651,0,0,1,112.541,219.91Z" transform="translate(211.079 2597.378)" fill="#fbbb41"/>
      <path id="패스_304" data-name="패스 304" d="M116.95,205.6h-9.9a1.65,1.65,0,1,1,0-3.3h9.9a1.65,1.65,0,1,1,0,3.3Z" transform="translate(211.621 2596.836)" fill="#fbbb41"/>
      <path id="패스_305" data-name="패스 305" d="M142.938,181a1.651,1.651,0,0,1-1.65-1.65v-3.422a7.584,7.584,0,0,0-3.739-6.523l-2.1-1.231a1.65,1.65,0,0,1,1.667-2.848l2.1,1.231a10.9,10.9,0,0,1,5.371,9.371v3.422a1.65,1.65,0,0,1-1.65,1.65Z" transform="translate(208.736 2600.508)" fill="#00459d"/>
      <path id="패스_306" data-name="패스 306" d="M77.933,180.328h62.709v8.25H77.933Z" transform="translate(214.332 2599.005)" fill="#fff"/>
      <path id="패스_307" data-name="패스 307" d="M140.461,190.048H77.752a1.65,1.65,0,0,1-1.65-1.65v-8.25a1.65,1.65,0,0,1,1.65-1.65h62.709a1.649,1.649,0,0,1,1.65,1.65v8.25A1.649,1.649,0,0,1,140.461,190.048Zm-61.059-3.3h59.409V181.8H79.4Z" transform="translate(214.513 2599.186)" fill="#00459d"/>
      <circle id="타원_39" data-name="타원 39" cx="3.301" cy="3.301" r="3.301" transform="translate(340.123 2762.83)" fill="#fff"/>
      <path id="패스_308" data-name="패스 308" d="M134.151,170.089a4.951,4.951,0,1,1,4.951-4.951A4.957,4.957,0,0,1,134.151,170.089Zm0-6.6a1.65,1.65,0,1,0,1.65,1.65A1.652,1.652,0,0,0,134.151,163.488Z" transform="translate(209.272 2600.993)" fill="#00459d"/>
    </g>
  </g>
</svg>
