<svg xmlns="http://www.w3.org/2000/svg" width="138" height="184" viewBox="0 0 138 184">
  <g id="그룹_315" data-name="그룹 315" transform="translate(-1096 -2683)">
    <text id="인천주보" transform="translate(1165 2859)" fill="#0068b7" font-size="24" font-family="NotoSansCJKkr-Medium, Noto Sans CJK KR" font-weight="500"><tspan x="-44.16" y="0">인천주보</tspan></text>
    <g id="그룹_244" data-name="그룹 244" transform="translate(-13 -23)">
      <circle id="타원_45" data-name="타원 45" cx="69" cy="69" r="69" transform="translate(1109 2706)" fill="#f1f8fe"/>
      <g id="그룹_227" data-name="그룹 227" transform="translate(1087.412 2610.373)">
        <path id="패스_280" data-name="패스 280" d="M121.867,126.477H53.437v70.28h49.936l18.495-18.5Z" fill="#3f80be"/>
        <path id="패스_281" data-name="패스 281" d="M103.373,198.606H53.437a1.851,1.851,0,0,1-1.849-1.85v-70.28a1.85,1.85,0,0,1,1.849-1.849h68.43a1.849,1.849,0,0,1,1.849,1.849v51.785a1.846,1.846,0,0,1-.541,1.308l-18.5,18.495A1.853,1.853,0,0,1,103.373,198.606Zm-48.086-3.7h47.32l17.411-17.411V128.326H55.288Z" fill="#00459d"/>
        <path id="패스_282" data-name="패스 282" d="M129.265,133.8H60.835v70.28h49.936l18.5-18.495Z" fill="#fff"/>
        <path id="패스_283" data-name="패스 283" d="M110.771,205.932H60.835a1.851,1.851,0,0,1-1.849-1.85V133.8a1.85,1.85,0,0,1,1.849-1.849h68.43a1.849,1.849,0,0,1,1.849,1.849v51.785a1.846,1.846,0,0,1-.541,1.308L112.078,205.39A1.853,1.853,0,0,1,110.771,205.932Zm-48.086-3.7H110l17.411-17.411V135.653H62.686Z" fill="#00459d"/>
        <path id="패스_284" data-name="패스 284" d="M110.772,204.083l18.495-18.495H110.772Z" fill="#fff"/>
        <path id="패스_285" data-name="패스 285" d="M110.771,205.932a1.851,1.851,0,0,1-1.849-1.85V185.587a1.85,1.85,0,0,1,1.849-1.849h18.5a1.848,1.848,0,0,1,1.308,3.157l-18.5,18.495A1.847,1.847,0,0,1,110.771,205.932Zm1.851-18.494v12.18l12.18-12.18Z" fill="#00459d"/>
        <g id="그룹_120" data-name="그룹 120">
          <path id="패스_288" data-name="패스 288" d="M110.771,150.449H88.577a1.85,1.85,0,1,1,0-3.7h22.194a1.85,1.85,0,0,1,0,3.7Z" fill="#fbbb41"/>
          <path id="패스_289" data-name="패스 289" d="M118.169,161.546H79.33a1.85,1.85,0,0,1,0-3.7h38.839a1.85,1.85,0,0,1,0,3.7Z" fill="#fbbb41"/>
          <path id="패스_290" data-name="패스 290" d="M118.169,172.643H71.932a1.85,1.85,0,0,1,0-3.7h46.237a1.85,1.85,0,0,1,0,3.7Z" fill="#fbbb41"/>
        </g>
      </g>
    </g>
  </g>
</svg>
