<svg xmlns="http://www.w3.org/2000/svg" width="160" height="214" viewBox="0 0 160 214">
  <g id="그룹_320" data-name="그룹 320" transform="translate(-1503 -2683)">
    <text id="카나혼인강좌_약혼자_주말신청" data-name="카나혼인강좌 &amp;
약혼자 주말신청" transform="translate(1583 2859)" fill="#0068b7" font-size="24" font-family="NotoSansCJKkr-Medium, Noto Sans CJK KR" font-weight="500"><tspan x="-77.4" y="0">카나혼인강좌 &amp;</tspan><tspan x="-79.98" y="30">약혼자 주말신청</tspan></text>
    <g id="그룹_251" data-name="그룹 251" transform="translate(0 -23)">
      <circle id="타원_51" data-name="타원 51" cx="69" cy="69" r="69" transform="translate(1514 2706)" fill="#f1f8fe"/>
      <g id="그룹_228" data-name="그룹 228" transform="translate(1491.381 2598.007)">
        <path id="패스_266" data-name="패스 266" d="M87.566,147.72a1.772,1.772,0,0,1-1.772-1.772V131.766a1.773,1.773,0,1,1,3.545,0v14.18a1.774,1.774,0,0,1-1.771,1.773Z" transform="translate(3.048 0)" fill="#fbbb41"/>
        <path id="패스_267" data-name="패스 267" d="M90.907,136.794H84.729a1.773,1.773,0,1,1,0-3.545H90.9a1.773,1.773,0,0,1,0,3.545Z" transform="translate(2.795 0.29)" fill="#fbbb41"/>
        <circle id="타원_33" data-name="타원 33" cx="7.66" cy="7.66" r="7.66" transform="translate(60.999 141.659)" fill="#fff"/>
        <path id="패스_268" data-name="패스 268" d="M68.035,157.942a9.432,9.432,0,1,1,9.432-9.432A9.433,9.433,0,0,1,68.035,157.942Zm0-15.319a5.887,5.887,0,1,0,5.887,5.887h0A5.893,5.893,0,0,0,68.035,142.622Z" transform="translate(0.623 0.81)" fill="#00459d"/>
        <path id="패스_269" data-name="패스 269" d="M61.263,160.943l-5.4,4.524a7.363,7.363,0,0,0-2.614,5.649v13.707a6.2,6.2,0,0,0,3.289,5.5l8.72,4.563H73.26l8.72-4.563a6.2,6.2,0,0,0,3.289-5.5V171.113a7.366,7.366,0,0,0-2.614-5.649l-5.4-4.521a7.057,7.057,0,0,0-4.533-1.664H65.8A7.045,7.045,0,0,0,61.263,160.943Z" transform="translate(0.145 2.612)" fill="#fff"/>
        <path id="패스_270" data-name="패스 270" d="M73.407,196.8H65.4a1.778,1.778,0,0,1-.821-.2l-8.72-4.563a7.938,7.938,0,0,1-4.24-7.072V171.258a9.105,9.105,0,0,1,3.25-7.008l5.4-4.524a8.85,8.85,0,0,1,5.671-2.078h6.917a8.855,8.855,0,0,1,5.671,2.078l5.4,4.524a9.105,9.105,0,0,1,3.25,7.008v13.708a7.942,7.942,0,0,1-4.239,7.072l-8.72,4.563A1.784,1.784,0,0,1,73.407,196.8Zm-7.57-3.545h7.134L81.3,188.9a4.405,4.405,0,0,0,2.338-3.931V171.258a5.571,5.571,0,0,0-1.981-4.29l-5.4-4.524a5.3,5.3,0,0,0-3.4-1.25H65.946a5.3,5.3,0,0,0-3.4,1.25l-5.4,4.524a5.57,5.57,0,0,0-1.981,4.29v13.708A4.405,4.405,0,0,0,57.5,188.9Z" transform="translate(0 2.466)" fill="#00459d"/>
        <path id="패스_271" data-name="패스 271" d="M79.408,174.507v31.477a10.7,10.7,0,0,1-21.384,0V174.976" transform="translate(0.571 3.97)" fill="#fff"/>
        <path id="패스_272" data-name="패스 272" d="M68.862,218.313A12.343,12.343,0,0,1,56.4,206.126v-31a1.773,1.773,0,1,1,3.545,0v31a8.924,8.924,0,0,0,17.839,0V174.648a1.773,1.773,0,1,1,3.545,0v31.477A12.343,12.343,0,0,1,68.862,218.313Z" transform="translate(0.426 3.824)" fill="#00459d"/>
        <circle id="타원_34" data-name="타원 34" cx="7.66" cy="7.66" r="7.66" transform="translate(105.982 141.659)" fill="#fff"/>
        <path id="패스_273" data-name="패스 273" d="M109.335,157.942a9.432,9.432,0,1,1,9.432-9.432A9.433,9.433,0,0,1,109.335,157.942Zm0-15.319a5.887,5.887,0,1,0,5.887,5.887h0A5.893,5.893,0,0,0,109.335,142.622Z" transform="translate(4.306 0.81)" fill="#00459d"/>
        <path id="패스_274" data-name="패스 274" d="M118.166,190.586v16.366a8.863,8.863,0,1,1-17.725,0h0V190.9Z" transform="translate(4.354 5.404)" fill="#fff"/>
        <path id="패스_275" data-name="패스 275" d="M109.449,217.793a10.68,10.68,0,0,1-10.635-10.7v-16.05a1.772,1.772,0,0,1,1.743-1.772l17.725-.313a1.773,1.773,0,0,1,1.8,1.742v16.4A10.681,10.681,0,0,1,109.449,217.793Zm-7.091-25.012v14.312a7.091,7.091,0,0,0,14.18.175V192.535Z" transform="translate(4.209 5.259)" fill="#00459d"/>
        <path id="패스_276" data-name="패스 276" d="M101.278,161.322a16.816,16.816,0,0,0-5.719,12.789v15.168h28.36V174.106a16.82,16.82,0,0,0-5.719-12.789,8.329,8.329,0,0,0-5.414-2.036h-6.091a8.318,8.318,0,0,0-5.415,2.036Z" transform="translate(3.919 2.612)" fill="#3f80be"/>
        <path id="패스_277" data-name="패스 277" d="M124.063,191.2H95.7a1.772,1.772,0,0,1-1.772-1.772V174.256a18.484,18.484,0,0,1,6.341-14.137,10.13,10.13,0,0,1,6.566-2.46h6.092a10.132,10.132,0,0,1,6.566,2.46,18.488,18.488,0,0,1,6.341,14.137v15.168a1.773,1.773,0,0,1-1.772,1.772Zm-26.587-3.545h24.815v-13.4a14.95,14.95,0,0,0-5.1-11.436,6.583,6.583,0,0,0-4.263-1.611h-6.092a6.584,6.584,0,0,0-4.263,1.611,14.947,14.947,0,0,0-5.1,11.436Zm3.948-26.185" transform="translate(3.773 2.467)" fill="#00459d"/>
        <path id="패스_278" data-name="패스 278" d="M116.8,175.9l9.8,26.4H93.851l9.8-26.4" transform="translate(3.766 4.095)" fill="#3f80be"/>
        <path id="패스_279" data-name="패스 279" d="M126.749,204.227H94a1.772,1.772,0,0,1-1.662-2.39l9.8-26.4a1.772,1.772,0,0,1,3.323,1.234h0l-8.914,24.015H124.2l-8.914-24.015a1.772,1.772,0,1,1,3.323-1.234l9.8,26.4a1.772,1.772,0,0,1-1.662,2.39Z" transform="translate(3.621 3.95)" fill="#00459d"/>
      </g>
    </g>
  </g>
</svg>
