<svg xmlns="http://www.w3.org/2000/svg" width="138" height="184" viewBox="0 0 138 184">
  <g id="그룹_314" data-name="그룹 314" transform="translate(-675 -2683)">
    <text id="통신교리신청" transform="translate(744 2859)" fill="#0068b7" font-size="24" font-family="NotoSansCJKkr-Medium, Noto Sans CJK KR" font-weight="500"><tspan x="-66.24" y="0">통신교리신청</tspan></text>
    <g id="그룹_242" data-name="그룹 242" transform="translate(-25 -23)">
      <circle id="타원_49" data-name="타원 49" cx="69" cy="69" r="69" transform="translate(700 2706)" fill="#f1f8fe"/>
      <g id="그룹_226" data-name="그룹 226" transform="translate(687.119 2608.698)">
        <path id="패스_309" data-name="패스 309" d="M60.705,126.758l-9.369,9.361v69.273h52.469V126.758Z" fill="#fff"/>
        <path id="패스_310" data-name="패스 310" d="M103.805,206.848H51.336a1.456,1.456,0,0,1-1.456-1.456V136.12a1.458,1.458,0,0,1,.426-1.031l9.37-9.361a1.459,1.459,0,0,1,1.029-.426h43.1a1.456,1.456,0,0,1,1.456,1.456v78.634A1.456,1.456,0,0,1,103.805,206.848Zm-51.013-2.912h49.557V128.214H61.308l-8.516,8.509Z" fill="#00459d"/>
        <path id="패스_311" data-name="패스 311" d="M61.486,136.786v-9.37l-10.15,9.37Z" fill="#fff"/>
        <path id="패스_312" data-name="패스 312" d="M61.486,138.242H51.336a1.456,1.456,0,0,1-.988-2.526l10.15-9.369a1.456,1.456,0,0,1,2.444,1.07v9.369a1.456,1.456,0,0,1-1.456,1.456ZM55.06,135.33h4.969v-4.587Z" fill="#00459d"/>
        <path id="패스_313" data-name="패스 313" d="M113.482,138.186l8.238,8.238L80.533,187.611,72.3,179.373Z" fill="#fff"/>
        <rect id="사각형_757" data-name="사각형 757" width="10.911" height="10.911" transform="translate(60.41 147.473)" fill="#3f80be"/>
        <rect id="사각형_758" data-name="사각형 758" width="10.911" height="10.911" transform="translate(60.41 166.444)" fill="#3f80be"/>
        <rect id="사각형_759" data-name="사각형 759" width="10.911" height="10.911" transform="translate(60.41 186.831)" fill="#fff"/>
        <path id="패스_314" data-name="패스 314" d="M71.679,160.25H60.03a1.456,1.456,0,0,1-1.456-1.456V147.145a1.456,1.456,0,0,1,1.456-1.456H71.679a1.456,1.456,0,0,1,1.456,1.456v11.649A1.456,1.456,0,0,1,71.679,160.25Zm-10.193-2.912h8.737V148.6H61.486Z" fill="#00459d"/>
        <path id="패스_315" data-name="패스 315" d="M71.679,179.181H60.03a1.456,1.456,0,0,1-1.456-1.456v-11.65a1.456,1.456,0,0,1,1.456-1.456H71.679a1.456,1.456,0,0,1,1.456,1.456v11.65A1.456,1.456,0,0,1,71.679,179.181Zm-10.193-2.913h8.737v-8.737H61.486Z" fill="#00459d"/>
        <path id="패스_316" data-name="패스 316" d="M71.679,199.567H60.03a1.456,1.456,0,0,1-1.456-1.456V186.462a1.456,1.456,0,0,1,1.456-1.457H71.679a1.456,1.456,0,0,1,1.456,1.457v11.649A1.456,1.456,0,0,1,71.679,199.567Zm-10.193-2.912h8.737v-8.737H61.486Z" fill="#00459d"/>
        <path id="패스_317" data-name="패스 317" d="M122.75,145.394a5.825,5.825,0,1,0-8.238-8.237l-1.03,1.029,8.238,8.238Z" fill="#fbbb41"/>
        <path id="패스_318" data-name="패스 318" d="M120.69,147.454l-8.237-8.238a1.455,1.455,0,0,1,0-2.059l1.029-1.03a7.281,7.281,0,0,1,10.3,10.3l-1.029,1.03A1.458,1.458,0,0,1,120.69,147.454Zm-5.148-9.268,6.178,6.178a4.369,4.369,0,0,0-6.178-6.178Z" fill="#00459d"/>
        <path id="패스_319" data-name="패스 319" d="M79.5,188.64,71.266,180.4a1.455,1.455,0,0,1,0-2.059l41.187-41.187a1.455,1.455,0,0,1,2.059,0l8.238,8.237a1.458,1.458,0,0,1,0,2.06L81.563,188.64A1.456,1.456,0,0,1,79.5,188.64Zm-5.148-9.267,6.178,6.178,39.128-39.127-6.179-6.178Z" fill="#00459d"/>
        <path id="패스_320" data-name="패스 320" d="M99.067,162.9a1.5,1.5,0,0,1,.06-2.12l19.621-19.621a1.459,1.459,0,1,1,2.06,2.059l-19.621,19.621A1.5,1.5,0,0,1,99.067,162.9Z" fill="#fbbb41"/>
        <path id="패스_321" data-name="패스 321" d="M72.6,180.373l-5.827,12.468,13.055-5.556Z" fill="#fff"/>
        <path id="패스_322" data-name="패스 322" d="M81.566,186.575l-8.237-8.237a1.457,1.457,0,0,0-2.369.456l-1.77,4.13h0l-.059.14-.642,1.5h0l-3.707,8.649a1.457,1.457,0,0,0,.31,1.6h0a1.454,1.454,0,0,0,1.6.309l6.131-2.628h0l2.518-1.079h0l5.766-2.471a1.457,1.457,0,0,0,.456-2.369ZM75.455,188.2h0l-.222.1-.13.055h0l-2.884,1.236-3.325,1.426.917-2.14h0l.025-.06.483-1.126h0l1.236-2.884h0l1.235-2.884,5.2,5.2Z" fill="#00459d"/>
      </g>
    </g>
  </g>
</svg>
