<svg xmlns="http://www.w3.org/2000/svg" width="138" height="184" viewBox="0 0 138 184">
  <g id="그룹_310" data-name="그룹 310" transform="translate(-674.999 -2455)">
    <text id="사목자료" transform="translate(743.999 2631)" fill="#0068b7" font-size="24" font-family="NotoSansCJKkr-Medium, Noto Sans CJK KR" font-weight="500"><tspan x="-44.16" y="0">사목자료</tspan></text>
    <g id="그룹_249" data-name="그룹 249" transform="translate(-25.001 -47)">
      <circle id="타원_46" data-name="타원 46" cx="69" cy="69" r="69" transform="translate(700 2502)" fill="#f1f8fe"/>
      <g id="그룹_230" data-name="그룹 230" transform="translate(696.705 2413.072)">
        <path id="패스_220" data-name="패스 220" d="M30.964,121.334H56V194.78H30.964Z" fill="#fff"/>
        <path id="패스_221" data-name="패스 221" d="M56,196.449H30.964A1.669,1.669,0,0,1,29.3,194.78h0V121.334a1.669,1.669,0,0,1,1.669-1.669H56a1.669,1.669,0,0,1,1.669,1.669V194.78A1.669,1.669,0,0,1,56,196.449Zm-23.369-3.338h21.7V123h-21.7Z" fill="#00459d"/>
        <path id="패스_222" data-name="패스 222" d="M39.31,129.68h8.346v25.038H39.31Z" fill="#fff"/>
        <path id="패스_223" data-name="패스 223" d="M47.661,156.388H39.31a1.669,1.669,0,0,1-1.669-1.669h0V129.68a1.669,1.669,0,0,1,1.669-1.669h8.351a1.669,1.669,0,0,1,1.669,1.669h0v25.038a1.671,1.671,0,0,1-1.668,1.67Zm-6.677-3.338h5.008v-21.7H40.979Z" fill="#00459d"/>
        <circle id="타원_25" data-name="타원 25" cx="4.16" cy="4.16" r="4.16" transform="translate(39.469 173.426)" fill="#fff"/>
        <path id="패스_224" data-name="패스 224" d="M43.483,183.094a5.842,5.842,0,1,1,5.842-5.842h0A5.853,5.853,0,0,1,43.483,183.094Zm0-8.346a2.5,2.5,0,1,0,2.5,2.5,2.5,2.5,0,0,0-2.5-2.5Z" fill="#00459d"/>
        <path id="패스_225" data-name="패스 225" d="M56,121.334H81.04V194.78H56Z" fill="#fff"/>
        <path id="패스_226" data-name="패스 226" d="M81.04,196.449H56a1.669,1.669,0,0,1-1.669-1.669h0V121.334A1.669,1.669,0,0,1,56,119.665H81.04a1.669,1.669,0,0,1,1.669,1.669V194.78a1.669,1.669,0,0,1-1.669,1.669Zm-23.369-3.338h21.7V123h-21.7Z" fill="#00459d"/>
        <path id="패스_227" data-name="패스 227" d="M64.348,129.68h8.346v25.038H64.348Z" fill="#fff"/>
        <path id="패스_228" data-name="패스 228" d="M72.7,156.388H64.353a1.669,1.669,0,0,1-1.669-1.669h0V129.68a1.669,1.669,0,0,1,1.669-1.669H72.7a1.669,1.669,0,0,1,1.669,1.669h0v25.038A1.67,1.67,0,0,1,72.7,156.388Zm-6.677-3.338H71.03v-21.7H66.022Z" fill="#00459d"/>
        <circle id="타원_26" data-name="타원 26" cx="4.16" cy="4.16" r="4.16" transform="translate(64.426 173.426)" fill="#fff"/>
        <path id="패스_229" data-name="패스 229" d="M68.521,183.094a5.842,5.842,0,1,1,5.842-5.842h0A5.853,5.853,0,0,1,68.521,183.094Zm0-8.346a2.5,2.5,0,1,0,2.5,2.5,2.5,2.5,0,0,0-2.5-2.5Z" fill="#00459d"/>
        <path id="패스_230" data-name="패스 230" d="M82.48,124.48l24.56-4.907,14.4,72.05-24.562,4.908Z" fill="#3f80be"/>
        <path id="패스_231" data-name="패스 231" d="M96.814,198.194a1.671,1.671,0,0,1-1.637-1.343L80.806,124.824a1.667,1.667,0,0,1,1.308-1.963h0l24.554-4.9a1.667,1.667,0,0,1,1.962,1.308v0h0L123,191.294a1.671,1.671,0,0,1-1.31,1.963l-24.554,4.9a1.9,1.9,0,0,1-.327.032ZM84.406,125.8l13.718,68.753,21.28-4.246-13.717-68.752Z" fill="#00459d"/>
        <path id="패스_232" data-name="패스 232" d="M92.3,131.032l8.187-1.636,4.913,24.563-8.19,1.635Z" fill="#fff"/>
        <path id="패스_233" data-name="패스 233" d="M97.16,157.271a1.671,1.671,0,0,1-1.637-1.343l-4.9-24.557a1.667,1.667,0,0,1,1.308-1.963h0l8.185-1.633a1.667,1.667,0,0,1,1.962,1.308v0h0l4.9,24.554a1.673,1.673,0,0,1-1.31,1.963l-8.185,1.633a1.718,1.718,0,0,1-.327.032Zm-2.936-24.916,4.246,21.281,4.911-.98-4.246-21.28Z" fill="#00459d"/>
        <circle id="타원_27" data-name="타원 27" cx="4.173" cy="4.173" r="4.173" transform="translate(101.489 172.709)" fill="#fbbb41"/>
        <path id="패스_234" data-name="패스 234" d="M105.649,182.724a5.858,5.858,0,1,1,1.156-.115A5.86,5.86,0,0,1,105.649,182.724Zm.013-8.348a2.5,2.5,0,1,0,2.5,2.5,2.526,2.526,0,0,0-.047-.483,2.5,2.5,0,0,0-2.455-2.014Z" fill="#00459d"/>
      </g>
    </g>
  </g>
</svg>
