<svg xmlns="http://www.w3.org/2000/svg" width="138" height="184" viewBox="0 0 138 184">
  <g id="그룹_309" data-name="그룹 309" transform="translate(-255 -2455)">
    <text id="사목교서" transform="translate(324 2631)" fill="#0068b7" font-size="24" font-family="NotoSansCJKkr-Medium, Noto Sans CJK KR" font-weight="500"><tspan x="-44.16" y="0">사목교서</tspan></text>
    <g id="그룹_247" data-name="그룹 247" transform="translate(0 -47)">
      <path id="패스_323" data-name="패스 323" d="M69,0A69,69,0,1,1,0,69,69,69,0,0,1,69,0Z" transform="translate(255 2502)" fill="#f1f8fe"/>
      <g id="그룹_219" data-name="그룹 219" transform="translate(253.472 2464.024)">
        <path id="패스_209" data-name="패스 209" d="M25.222,82.838h91.414V140.4H25.222Z" fill="#3f80be"/>
        <path id="패스_210" data-name="패스 210" d="M118.329,142.088h-94.8V81.145h94.8ZM26.915,138.7h88.028V84.531H26.915Z" fill="#00459d"/>
        <path id="패스_211" data-name="패스 211" d="M70.929,138.168V82.5s13.137-13.361,37.22-8.907v55.671S86.255,127.035,70.929,138.168Z" fill="#fff"/>
        <path id="패스_212" data-name="패스 212" d="M69.236,141.491V81.8l.485-.494c.562-.572,14.05-13.952,38.735-9.385l1.385.256v58.953l-1.864-.19c-.212-.022-21.448-2.018-36.054,8.593Zm3.386-58.253v51.771c12.811-7.814,28.483-7.824,33.835-7.562V75.017a44.686,44.686,0,0,0-25.113,2.839,34.229,34.229,0,0,0-8.721,5.382Z" fill="#00459d"/>
        <path id="패스_213" data-name="패스 213" d="M70.929,138.168V82.5S57.786,69.137,33.686,73.59v55.671S55.594,127.035,70.929,138.168Z" fill="#fff"/>
        <path id="패스_214" data-name="패스 214" d="M72.621,141.489l-2.687-1.951c-14.641-10.636-35.864-8.615-36.077-8.593l-1.864.19V72.181l1.385-.256c24.7-4.564,38.195,8.813,38.757,9.385l.486.494ZM38.539,127.372c6.956,0,19.851,1.026,30.7,7.637V83.24c-2.476-2.16-14.319-11.317-33.857-8.224v52.43C36.2,127.4,37.273,127.372,38.539,127.372Z" fill="#00459d"/>
        <path id="패스_218" data-name="패스 218" d="M52.308,116.7A1.693,1.693,0,0,1,50.615,115V91.3A1.693,1.693,0,1,1,54,91.3V115A1.693,1.693,0,0,1,52.308,116.7Z" fill="#fbbb41"/>
        <path id="패스_219" data-name="패스 219" d="M59.081,99.777a1.884,1.884,0,0,1-.212-.013L45.326,98.071a1.693,1.693,0,0,1,.42-3.359L59.289,96.4a1.693,1.693,0,0,1-.208,3.373Z" fill="#fbbb41"/>
      </g>
    </g>
  </g>
</svg>
