<svg xmlns="http://www.w3.org/2000/svg" width="138" height="184" viewBox="0 0 138 184">
  <g id="그룹_325" data-name="그룹 325" transform="translate(-1064 -2701)">
    <text id="혼인과신앙" transform="translate(1133 2877)" fill="#0068b7" font-size="24" font-family="NotoSansCJKkr-Medium, Noto Sans CJK KR" font-weight="500"><tspan x="-55.2" y="0">혼인과신앙</tspan></text>
    <g id="그룹_323" data-name="그룹 323">
      <circle id="타원_51" data-name="타원 51" cx="69" cy="69" r="69" transform="translate(1064 2701)" fill="#f1f8fe"/>
      <g id="그룹_322" data-name="그룹 322" transform="translate(984.187 2615.947)">
        <path id="패스_373" data-name="패스 373" d="M330.9,182.072l8.8-8.8a3.57,3.57,0,0,0-5.049-5.049L321.67,181.207a14.449,14.449,0,0,0-4.232,10.217v19.262h15.148v-5.693a12.955,12.955,0,0,1,2.686-7.9l9.882-12.847a20.555,20.555,0,0,0,4.263-12.532V147.568a4.208,4.208,0,1,0-8.416,0l-.916,21.1" transform="translate(-159.448 -20.574)" fill="#fff"/>
        <path id="패스_374" data-name="패스 374" d="M327.444,207.225H312.3a1.683,1.683,0,0,1-1.683-1.683V186.28a16.028,16.028,0,0,1,4.725-11.407l12.985-12.985a5.239,5.239,0,0,1,4.148-1.521,5.3,5.3,0,0,1,.918.158l.788-18.14a5.891,5.891,0,0,1,11.782.04v24.147a22.355,22.355,0,0,1-4.611,13.559l-9.883,12.847a11.329,11.329,0,0,0-2.337,6.872v5.693a1.683,1.683,0,0,1-1.683,1.683Zm-13.465-3.366h11.782v-4.01a14.715,14.715,0,0,1,3.036-8.924l9.883-12.847a18.97,18.97,0,0,0,3.913-11.506V142.424a2.525,2.525,0,1,0-5.049,0c0,.024,0,.049,0,.073l-.894,20.583a5.234,5.234,0,0,1-.895,6.237l-8.8,8.8a1.683,1.683,0,1,1-2.38-2.38l8.8-8.8a1.88,1.88,0,0,0,.208-2.422l-.014-.019a1.887,1.887,0,0,0-2.863-.228l-12.985,12.985a12.681,12.681,0,0,0-3.739,9.027Z" transform="translate(-154.306 -15.431)" fill="#00459d"/>
        <path id="패스_375" data-name="패스 375" d="M131.154,182.072l-8.8-8.8a3.57,3.57,0,1,1,5.049-5.049l12.985,12.985a14.449,14.449,0,0,1,4.232,10.217v19.262H129.472v-5.693a12.955,12.955,0,0,0-2.686-7.9L116.9,184.247a20.555,20.555,0,0,1-4.263-12.532V147.568a4.208,4.208,0,1,1,8.416,0l.916,21.1" transform="translate(-5.144 -20.574)" fill="#fff"/>
        <path id="패스_376" data-name="패스 376" d="M139.476,207.225H124.328a1.683,1.683,0,0,1-1.683-1.683v-5.693a11.33,11.33,0,0,0-2.337-6.872l-9.883-12.847a22.355,22.355,0,0,1-4.612-13.559V142.424a5.891,5.891,0,0,1,11.782-.04l.788,18.14a5.262,5.262,0,0,1,5.066,1.363l12.985,12.985a16.027,16.027,0,0,1,4.725,11.408v19.261A1.684,1.684,0,0,1,139.476,207.225Zm-13.465-3.366h11.782V186.28a12.683,12.683,0,0,0-3.739-9.027l-12.985-12.985a1.888,1.888,0,0,0-2.863.228l-.013.019a1.881,1.881,0,0,0,.207,2.422l8.8,8.8a1.683,1.683,0,1,1-2.38,2.38l-8.8-8.8a5.234,5.234,0,0,1-.895-6.237L114.23,142.5c0-.024,0-.048,0-.073a2.525,2.525,0,1,0-5.049,0v24.147a18.972,18.972,0,0,0,3.913,11.506l9.882,12.847a14.712,14.712,0,0,1,3.035,8.924v4.01Z" transform="translate(0 -15.431)" fill="#00459d"/>
        <path id="패스_377" data-name="패스 377" d="M235.143,122.88a10.085,10.085,0,0,0-8.416,4.521,10.1,10.1,0,0,0-18.515,5.578c0,5.578,13.465,21.881,18.515,25.247,5.049-3.366,18.514-19.67,18.514-25.247A10.1,10.1,0,0,0,235.143,122.88Z" transform="translate(-77.153 -5.144)" fill="#3f80be"/>
        <g id="그룹_321" data-name="그룹 321" transform="translate(129.377 116.053)">
          <path id="패스_378" data-name="패스 378" d="M221.585,154.765a1.682,1.682,0,0,1-.934-.283c-4.822-3.215-19.264-20.019-19.264-26.647a11.78,11.78,0,0,1,20.2-8.243,11.78,11.78,0,0,1,20.2,8.243c0,6.628-14.442,23.433-19.264,26.647A1.683,1.683,0,0,1,221.585,154.765Zm-8.416-35.346a8.425,8.425,0,0,0-8.416,8.416c0,4.374,11.331,18.723,16.831,23.154,5.5-4.43,16.831-18.779,16.831-23.154a8.414,8.414,0,0,0-15.429-4.647,1.683,1.683,0,0,1-2.8,0,8.4,8.4,0,0,0-7.014-3.769Z" transform="translate(-201.387 -116.053)" fill="#00459d"/>
          <path id="패스_379" data-name="패스 379" d="M278.163,180.671a1.683,1.683,0,0,1-1.683-1.683V165.523a1.683,1.683,0,1,1,3.366,0v13.465A1.683,1.683,0,0,1,278.163,180.671Z" transform="translate(-257.966 -152.058)" fill="#fbbb41"/>
          <path id="패스_380" data-name="패스 380" d="M272.138,180.859h-5.862a1.683,1.683,0,1,1,0-3.366h5.862a1.683,1.683,0,0,1,0,3.366Z" transform="translate(-249.009 -162.345)" fill="#fbbb41"/>
        </g>
      </g>
    </g>
  </g>
</svg>
