<svg xmlns="http://www.w3.org/2000/svg" width="138" height="184" viewBox="0 0 138 184">
  <g id="그룹_311" data-name="그룹 311" transform="translate(-1096.001 -2455)">
    <text id="미사시간" transform="translate(1165.001 2631)" fill="#0068b7" font-size="24" font-family="NotoSansCJKkr-Medium, Noto Sans CJK KR" font-weight="500"><tspan x="-44.16" y="0">미사시간</tspan></text>
    <g id="그룹_236" data-name="그룹 236" transform="translate(-12.999 -47)">
      <circle id="타원_47" data-name="타원 47" cx="69" cy="69" r="69" transform="translate(1109 2502)" fill="#f1f8fe"/>
      <g id="그룹_229" data-name="그룹 229" transform="translate(1109.008 2407)">
        <circle id="타원_29" data-name="타원 29" cx="34.206" cy="34.206" r="34.206" transform="translate(35.007 130.999)" fill="#fbbb41"/>
        <path id="패스_235" data-name="패스 235" d="M69.213,201a35.8,35.8,0,1,1,35.8-35.8,35.8,35.8,0,0,1-35.8,35.8Zm0-68.412a32.614,32.614,0,1,0,32.613,32.616h0a32.651,32.651,0,0,0-32.613-32.614Z" fill="#00459d"/>
        <circle id="타원_30" data-name="타원 30" cx="27.673" cy="27.673" r="27.673" transform="translate(41.539 137.531)" fill="#fff"/>
        <path id="패스_236" data-name="패스 236" d="M69.213,194.47A29.265,29.265,0,1,1,98.478,165.2,29.265,29.265,0,0,1,69.213,194.47h0Zm0-55.347a26.082,26.082,0,1,0,26.081,26.083v0a26.082,26.082,0,0,0-26.082-26.082h0Z" fill="#00459d"/>
        <path id="패스_237" data-name="패스 237" d="M70.815,168.315H59.884a1.591,1.591,0,1,1,0-3.183h9.942l7.518-15.153a1.591,1.591,0,0,1,2.851,1.415h0L72.24,167.436A1.59,1.59,0,0,1,70.815,168.315Z" fill="#00459d"/>
        <path id="패스_238" data-name="패스 238" d="M69.226,200.021a1.591,1.591,0,0,1-1.591-1.591h0V187.29a1.592,1.592,0,0,1,3.183-.08c0,.027,0,.054,0,.08v11.14A1.592,1.592,0,0,1,69.226,200.021Z" fill="#00459d"/>
        <path id="패스_239" data-name="패스 239" d="M69.226,144.321a1.593,1.593,0,0,1-1.591-1.591V131.589a1.592,1.592,0,0,1,3.183-.08c0,.027,0,.054,0,.08h0v11.14A1.592,1.592,0,0,1,69.226,144.321Z" fill="#00459d"/>
        <path id="패스_240" data-name="패스 240" d="M102.644,168.315H91.5a1.591,1.591,0,1,1,0-3.183h11.14a1.591,1.591,0,0,1,0,3.183Z" fill="#00459d"/>
        <path id="패스_241" data-name="패스 241" d="M48.535,168.193H35.8a1.592,1.592,0,0,1-.08-3.183H48.535a1.592,1.592,0,0,1,0,3.183Z" fill="#00459d"/>
        <path id="패스_242" data-name="패스 242" d="M45.373,207.222a1.591,1.591,0,0,1-1.125-2.717l9.218-9.218a1.591,1.591,0,0,1,2.258,2.242l-.008.008-9.222,9.218a1.594,1.594,0,0,1-1.125.466Z" fill="#00459d"/>
        <path id="패스_243" data-name="패스 243" d="M95.126,207.222A1.588,1.588,0,0,1,94,206.756l-9.218-9.218a1.591,1.591,0,1,1,2.238-2.262h0l.008.008,9.218,9.218a1.591,1.591,0,0,1-1.125,2.717Z" fill="#00459d"/>
        <path id="패스_244" data-name="패스 244" d="M107.634,146.872,88.582,127.816l2.2-2.2a13.475,13.475,0,0,1,19.052,19.057Z" fill="#3f80be"/>
        <path id="패스_245" data-name="패스 245" d="M107.643,148.463a1.588,1.588,0,0,1-1.125-.466l-19.06-19.052a1.592,1.592,0,0,1,0-2.25l2.2-2.2a15.066,15.066,0,0,1,21.305,21.3l-2.2,2.2A1.592,1.592,0,0,1,107.643,148.463Zm-16.81-20.648,16.81,16.806,1.073-1.073a11.884,11.884,0,0,0-16.81-16.8Z" fill="#00459d"/>
        <path id="패스_246" data-name="패스 246" d="M30.809,146.872l19.056-19.056-2.2-2.2a13.476,13.476,0,0,0-19.2,18.915h0l.142.142Z" fill="#3f80be"/>
        <path id="패스_247" data-name="패스 247" d="M30.808,148.464A1.588,1.588,0,0,1,29.683,148l-2.2-2.2a15.067,15.067,0,1,1,21.151-21.464l.019.019.139.139h0l2.2,2.2a1.592,1.592,0,0,1,0,2.25L31.934,148A1.589,1.589,0,0,1,30.808,148.464Zm7.329-25.2a11.878,11.878,0,0,0-8.4,20.281l1.073,1.073,16.8-16.8-1.074-1.069a11.837,11.837,0,0,0-8.4-3.475Z" fill="#00459d"/>
      </g>
    </g>
  </g>
</svg>
